<mxfile host="Electron" modified="2024-02-07T20:33:35.149Z" agent="Mozilla/5.0 (Macintosh; Intel Mac OS X 10_15_7) AppleWebKit/537.36 (KHTML, like Gecko) draw.io/22.1.2 Chrome/114.0.5735.289 Electron/25.9.4 Safari/537.36" etag="PHqJ4dwj9ZBaICUub5H_" version="22.1.2" type="device" pages="2">
  <diagram name="Overview" id="6-Hrf0Ne7H9Git_eUcZx">
    <mxGraphModel dx="1967" dy="761" grid="1" gridSize="10" guides="1" tooltips="1" connect="1" arrows="1" fold="1" page="1" pageScale="1" pageWidth="827" pageHeight="1169" math="0" shadow="0">
      <root>
        <mxCell id="0" />
        <mxCell id="1" parent="0" />
        <mxCell id="w5Jm2n6bVohY78ZdvehF-2" value="" style="rounded=0;whiteSpace=wrap;html=1;sketch=1;hachureGap=4;jiggle=2;curveFitting=1;fontFamily=Architects Daughter;fontSource=https%3A%2F%2Ffonts.googleapis.com%2Fcss%3Ffamily%3DArchitects%2BDaughter;fontSize=20;" parent="1" vertex="1">
          <mxGeometry x="-40" y="90" width="920" height="690" as="geometry" />
        </mxCell>
        <mxCell id="7FL-P6S-DSe6H9cHf4YD-16" style="edgeStyle=orthogonalEdgeStyle;rounded=0;sketch=1;hachureGap=4;jiggle=2;curveFitting=1;orthogonalLoop=1;jettySize=auto;html=1;exitX=0.5;exitY=1;exitDx=0;exitDy=0;entryX=0.5;entryY=0;entryDx=0;entryDy=0;fontFamily=Architects Daughter;fontSource=https%3A%2F%2Ffonts.googleapis.com%2Fcss%3Ffamily%3DArchitects%2BDaughter;fontSize=16;strokeWidth=1;" parent="1" source="7FL-P6S-DSe6H9cHf4YD-1" target="7FL-P6S-DSe6H9cHf4YD-2" edge="1">
          <mxGeometry relative="1" as="geometry" />
        </mxCell>
        <mxCell id="7FL-P6S-DSe6H9cHf4YD-17" style="edgeStyle=orthogonalEdgeStyle;rounded=0;sketch=1;hachureGap=4;jiggle=2;curveFitting=1;orthogonalLoop=1;jettySize=auto;html=1;exitX=0.5;exitY=1;exitDx=0;exitDy=0;entryX=0.5;entryY=0;entryDx=0;entryDy=0;fontFamily=Architects Daughter;fontSource=https%3A%2F%2Ffonts.googleapis.com%2Fcss%3Ffamily%3DArchitects%2BDaughter;fontSize=16;strokeWidth=1;" parent="1" source="7FL-P6S-DSe6H9cHf4YD-1" target="7FL-P6S-DSe6H9cHf4YD-3" edge="1">
          <mxGeometry relative="1" as="geometry" />
        </mxCell>
        <mxCell id="7FL-P6S-DSe6H9cHf4YD-18" style="edgeStyle=orthogonalEdgeStyle;rounded=0;sketch=1;hachureGap=4;jiggle=2;curveFitting=1;orthogonalLoop=1;jettySize=auto;html=1;exitX=0.5;exitY=1;exitDx=0;exitDy=0;fontFamily=Architects Daughter;fontSource=https%3A%2F%2Ffonts.googleapis.com%2Fcss%3Ffamily%3DArchitects%2BDaughter;fontSize=16;strokeWidth=1;" parent="1" source="7FL-P6S-DSe6H9cHf4YD-1" target="7FL-P6S-DSe6H9cHf4YD-4" edge="1">
          <mxGeometry relative="1" as="geometry" />
        </mxCell>
        <mxCell id="7FL-P6S-DSe6H9cHf4YD-19" style="edgeStyle=orthogonalEdgeStyle;rounded=0;sketch=1;hachureGap=4;jiggle=2;curveFitting=1;orthogonalLoop=1;jettySize=auto;html=1;exitX=0.5;exitY=1;exitDx=0;exitDy=0;entryX=0.5;entryY=0;entryDx=0;entryDy=0;fontFamily=Architects Daughter;fontSource=https%3A%2F%2Ffonts.googleapis.com%2Fcss%3Ffamily%3DArchitects%2BDaughter;fontSize=16;strokeWidth=1;" parent="1" source="7FL-P6S-DSe6H9cHf4YD-1" target="7FL-P6S-DSe6H9cHf4YD-5" edge="1">
          <mxGeometry relative="1" as="geometry" />
        </mxCell>
        <mxCell id="7FL-P6S-DSe6H9cHf4YD-1" value="&lt;font face=&quot;Helvetica&quot; style=&quot;font-size: 17px;&quot;&gt;&lt;i style=&quot;font-size: 17px;&quot;&gt;File&lt;/i&gt;&lt;br style=&quot;font-size: 17px;&quot;&gt;Views.py&lt;/font&gt;" style="rounded=0;whiteSpace=wrap;html=1;sketch=1;hachureGap=4;jiggle=2;curveFitting=1;fontFamily=Architects Daughter;fontSource=https%3A%2F%2Ffonts.googleapis.com%2Fcss%3Ffamily%3DArchitects%2BDaughter;fontSize=17;fillColor=#eeeeee;strokeColor=#36393d;strokeWidth=1;fontStyle=0" parent="1" vertex="1">
          <mxGeometry x="360" y="110" width="120" height="60" as="geometry" />
        </mxCell>
        <mxCell id="7FL-P6S-DSe6H9cHf4YD-2" value="&lt;font face=&quot;Helvetica&quot; style=&quot;font-size: 17px;&quot;&gt;&lt;i style=&quot;font-size: 17px;&quot;&gt;Class&lt;/i&gt; &lt;br&gt;RequirementGen&lt;/font&gt;" style="rounded=0;whiteSpace=wrap;html=1;sketch=1;hachureGap=4;jiggle=2;curveFitting=1;fontFamily=Architects Daughter;fontSource=https%3A%2F%2Ffonts.googleapis.com%2Fcss%3Ffamily%3DArchitects%2BDaughter;fontSize=17;fillColor=#bac8d3;strokeColor=#23445d;strokeWidth=1.5;" parent="1" vertex="1">
          <mxGeometry x="-20" y="220" width="190" height="60" as="geometry" />
        </mxCell>
        <mxCell id="7FL-P6S-DSe6H9cHf4YD-3" value="&lt;font face=&quot;Helvetica&quot; style=&quot;font-size: 17px;&quot;&gt;&lt;i style=&quot;font-size: 17px;&quot;&gt;Class&lt;/i&gt; RequirementDisplay&lt;/font&gt;" style="rounded=0;whiteSpace=wrap;html=1;sketch=1;hachureGap=4;jiggle=2;curveFitting=1;fontFamily=Architects Daughter;fontSource=https%3A%2F%2Ffonts.googleapis.com%2Fcss%3Ffamily%3DArchitects%2BDaughter;fontSize=17;fillColor=#b0e3e6;strokeColor=#0e8088;strokeWidth=1.5;" parent="1" vertex="1">
          <mxGeometry x="210" y="220" width="190" height="60" as="geometry" />
        </mxCell>
        <mxCell id="7FL-P6S-DSe6H9cHf4YD-4" value="&lt;font face=&quot;Helvetica&quot; style=&quot;font-size: 17px;&quot;&gt;&lt;i style=&quot;font-size: 17px;&quot;&gt;Class&lt;/i&gt; RequirementDelete&lt;/font&gt;" style="rounded=0;whiteSpace=wrap;html=1;sketch=1;hachureGap=4;jiggle=2;curveFitting=1;fontFamily=Architects Daughter;fontSource=https%3A%2F%2Ffonts.googleapis.com%2Fcss%3Ffamily%3DArchitects%2BDaughter;fontSize=17;fillColor=#e1d5e7;strokeColor=#9673a6;strokeWidth=1.5;" parent="1" vertex="1">
          <mxGeometry x="440" y="220" width="190" height="60" as="geometry" />
        </mxCell>
        <mxCell id="7FL-P6S-DSe6H9cHf4YD-5" value="&lt;font face=&quot;Helvetica&quot; style=&quot;font-size: 17px;&quot;&gt;&lt;i style=&quot;font-size: 17px;&quot;&gt;Class&lt;/i&gt; &lt;br style=&quot;font-size: 17px;&quot;&gt;SoleDisplay&lt;/font&gt;" style="rounded=0;whiteSpace=wrap;html=1;sketch=1;hachureGap=4;jiggle=2;curveFitting=1;fontFamily=Architects Daughter;fontSource=https%3A%2F%2Ffonts.googleapis.com%2Fcss%3Ffamily%3DArchitects%2BDaughter;fontSize=17;fillColor=#fff2cc;strokeColor=#d6b656;strokeWidth=1.5;" parent="1" vertex="1">
          <mxGeometry x="670" y="220" width="190" height="60" as="geometry" />
        </mxCell>
        <mxCell id="7FL-P6S-DSe6H9cHf4YD-6" value="&lt;font face=&quot;Helvetica&quot; style=&quot;font-size: 16px;&quot;&gt;&lt;i style=&quot;font-size: 16px;&quot;&gt;Function&lt;/i&gt;&lt;br style=&quot;font-size: 16px;&quot;&gt;showHome&lt;br style=&quot;font-size: 16px;&quot;&gt;&lt;/font&gt;" style="rounded=0;whiteSpace=wrap;html=1;sketch=1;hachureGap=4;jiggle=2;curveFitting=1;fontFamily=Architects Daughter;fontSource=https%3A%2F%2Ffonts.googleapis.com%2Fcss%3Ffamily%3DArchitects%2BDaughter;fontSize=16;fillColor=#fff2cc;strokeColor=#d6b656;strokeWidth=0.5;fontStyle=0" parent="1" vertex="1">
          <mxGeometry x="670" y="300" width="190" height="60" as="geometry" />
        </mxCell>
        <mxCell id="7FL-P6S-DSe6H9cHf4YD-7" value="&lt;font face=&quot;Helvetica&quot; style=&quot;font-size: 16px;&quot;&gt;&lt;i style=&quot;font-size: 16px;&quot;&gt;Function&lt;/i&gt;&lt;br style=&quot;font-size: 16px;&quot;&gt;redirectToHome&lt;br style=&quot;font-size: 16px;&quot;&gt;&lt;/font&gt;" style="rounded=0;whiteSpace=wrap;html=1;sketch=1;hachureGap=4;jiggle=2;curveFitting=1;fontFamily=Architects Daughter;fontSource=https%3A%2F%2Ffonts.googleapis.com%2Fcss%3Ffamily%3DArchitects%2BDaughter;fontSize=16;fillColor=#fff2cc;strokeColor=#d6b656;strokeWidth=0.5;fontStyle=0" parent="1" vertex="1">
          <mxGeometry x="670" y="380" width="190" height="60" as="geometry" />
        </mxCell>
        <mxCell id="7FL-P6S-DSe6H9cHf4YD-8" value="&lt;font face=&quot;Helvetica&quot; style=&quot;font-size: 16px;&quot;&gt;&lt;i style=&quot;font-size: 16px;&quot;&gt;Overwritten function&lt;/i&gt;&lt;br style=&quot;font-size: 16px;&quot;&gt;get&lt;br style=&quot;font-size: 16px;&quot;&gt;&lt;/font&gt;" style="rounded=0;whiteSpace=wrap;html=1;sketch=1;hachureGap=4;jiggle=2;curveFitting=1;fontFamily=Architects Daughter;fontSource=https%3A%2F%2Ffonts.googleapis.com%2Fcss%3Ffamily%3DArchitects%2BDaughter;fontSize=16;fillColor=#e1d5e7;strokeColor=#9673a6;strokeWidth=0.5;fontStyle=0" parent="1" vertex="1">
          <mxGeometry x="440" y="300" width="190" height="60" as="geometry" />
        </mxCell>
        <mxCell id="7FL-P6S-DSe6H9cHf4YD-9" value="&lt;font face=&quot;Helvetica&quot; style=&quot;font-size: 16px;&quot;&gt;&lt;i style=&quot;font-size: 16px;&quot;&gt;Function&lt;/i&gt;&lt;br style=&quot;font-size: 16px;&quot;&gt;showRequirements&lt;br style=&quot;font-size: 16px;&quot;&gt;&lt;/font&gt;" style="rounded=0;whiteSpace=wrap;html=1;sketch=1;hachureGap=4;jiggle=2;curveFitting=1;fontFamily=Architects Daughter;fontSource=https%3A%2F%2Ffonts.googleapis.com%2Fcss%3Ffamily%3DArchitects%2BDaughter;fontSize=16;fillColor=#b0e3e6;strokeColor=#0e8088;strokeWidth=0.5;fontStyle=0" parent="1" vertex="1">
          <mxGeometry x="210" y="300" width="190" height="60" as="geometry" />
        </mxCell>
        <mxCell id="7FL-P6S-DSe6H9cHf4YD-10" value="&lt;font face=&quot;Helvetica&quot; style=&quot;font-size: 16px;&quot;&gt;&lt;i style=&quot;font-size: 16px;&quot;&gt;Function&lt;/i&gt;&lt;br style=&quot;font-size: 16px;&quot;&gt;createUserStory&lt;br style=&quot;font-size: 16px;&quot;&gt;&lt;/font&gt;" style="rounded=0;whiteSpace=wrap;html=1;sketch=1;hachureGap=4;jiggle=2;curveFitting=1;fontFamily=Architects Daughter;fontSource=https%3A%2F%2Ffonts.googleapis.com%2Fcss%3Ffamily%3DArchitects%2BDaughter;fontSize=16;fillColor=#bac8d3;strokeColor=#23445d;strokeWidth=0.5;fontStyle=0" parent="1" vertex="1">
          <mxGeometry x="-20" y="300" width="190" height="60" as="geometry" />
        </mxCell>
        <mxCell id="7FL-P6S-DSe6H9cHf4YD-11" value="&lt;font face=&quot;Helvetica&quot; style=&quot;font-size: 16px;&quot;&gt;&lt;i style=&quot;font-size: 16px;&quot;&gt;Function&lt;/i&gt;&lt;br style=&quot;font-size: 16px;&quot;&gt;getRequirementsDetail&lt;br style=&quot;font-size: 16px;&quot;&gt;&lt;/font&gt;" style="rounded=0;whiteSpace=wrap;html=1;sketch=1;hachureGap=4;jiggle=2;curveFitting=1;fontFamily=Architects Daughter;fontSource=https%3A%2F%2Ffonts.googleapis.com%2Fcss%3Ffamily%3DArchitects%2BDaughter;fontSize=16;fillColor=#b0e3e6;strokeColor=#0e8088;strokeWidth=0.5;fontStyle=0" parent="1" vertex="1">
          <mxGeometry x="210" y="380" width="190" height="60" as="geometry" />
        </mxCell>
        <mxCell id="7FL-P6S-DSe6H9cHf4YD-12" value="&lt;font face=&quot;Helvetica&quot; style=&quot;font-size: 16px;&quot;&gt;&lt;i style=&quot;font-size: 16px;&quot;&gt;Function&lt;/i&gt;&lt;br style=&quot;font-size: 16px;&quot;&gt;requirementFill&lt;br style=&quot;font-size: 16px;&quot;&gt;&lt;/font&gt;" style="rounded=0;whiteSpace=wrap;html=1;sketch=1;hachureGap=4;jiggle=2;curveFitting=1;fontFamily=Architects Daughter;fontSource=https%3A%2F%2Ffonts.googleapis.com%2Fcss%3Ffamily%3DArchitects%2BDaughter;fontSize=16;fillColor=#bac8d3;strokeColor=#23445d;strokeWidth=0.5;fontStyle=0" parent="1" vertex="1">
          <mxGeometry x="-20" y="620" width="190" height="60" as="geometry" />
        </mxCell>
        <mxCell id="7FL-P6S-DSe6H9cHf4YD-13" value="&lt;font face=&quot;Helvetica&quot; style=&quot;font-size: 16px;&quot;&gt;&lt;i style=&quot;font-size: 16px;&quot;&gt;Function&lt;/i&gt;&lt;br style=&quot;font-size: 16px;&quot;&gt;handleProcess&lt;br style=&quot;font-size: 16px;&quot;&gt;&lt;/font&gt;" style="rounded=0;whiteSpace=wrap;html=1;sketch=1;hachureGap=4;jiggle=2;curveFitting=1;fontFamily=Architects Daughter;fontSource=https%3A%2F%2Ffonts.googleapis.com%2Fcss%3Ffamily%3DArchitects%2BDaughter;fontSize=16;fillColor=#bac8d3;strokeColor=#23445d;strokeWidth=0.5;fontStyle=0" parent="1" vertex="1">
          <mxGeometry x="-20" y="540" width="190" height="60" as="geometry" />
        </mxCell>
        <mxCell id="7FL-P6S-DSe6H9cHf4YD-14" value="&lt;font face=&quot;Helvetica&quot; style=&quot;font-size: 16px;&quot;&gt;&lt;i style=&quot;font-size: 16px;&quot;&gt;Function&lt;/i&gt;&lt;br style=&quot;font-size: 16px;&quot;&gt;getRecentUpload&lt;br style=&quot;font-size: 16px;&quot;&gt;&lt;/font&gt;" style="rounded=0;whiteSpace=wrap;html=1;sketch=1;hachureGap=4;jiggle=2;curveFitting=1;fontFamily=Architects Daughter;fontSource=https%3A%2F%2Ffonts.googleapis.com%2Fcss%3Ffamily%3DArchitects%2BDaughter;fontSize=16;fillColor=#bac8d3;strokeColor=#23445d;strokeWidth=0.5;fontStyle=0" parent="1" vertex="1">
          <mxGeometry x="-20" y="380" width="190" height="60" as="geometry" />
        </mxCell>
        <mxCell id="7FL-P6S-DSe6H9cHf4YD-15" value="&lt;font face=&quot;Helvetica&quot; style=&quot;font-size: 16px;&quot;&gt;&lt;i style=&quot;font-size: 16px;&quot;&gt;Function&lt;/i&gt;&lt;br style=&quot;font-size: 16px;&quot;&gt;createRequirementsList&lt;br style=&quot;font-size: 16px;&quot;&gt;&lt;/font&gt;" style="rounded=0;whiteSpace=wrap;html=1;sketch=1;hachureGap=4;jiggle=2;curveFitting=1;fontFamily=Architects Daughter;fontSource=https%3A%2F%2Ffonts.googleapis.com%2Fcss%3Ffamily%3DArchitects%2BDaughter;fontSize=16;fillColor=#bac8d3;strokeColor=#23445d;strokeWidth=0.5;fontStyle=0" parent="1" vertex="1">
          <mxGeometry x="-20" y="460" width="190" height="60" as="geometry" />
        </mxCell>
      </root>
    </mxGraphModel>
  </diagram>
  <diagram id="RwiJ1PeFAclJzmHwxJGJ" name="RequirementGen">
    <mxGraphModel dx="1853" dy="685" grid="1" gridSize="10" guides="1" tooltips="1" connect="1" arrows="1" fold="1" page="1" pageScale="1" pageWidth="827" pageHeight="1169" math="0" shadow="0">
      <root>
        <mxCell id="0" />
        <mxCell id="1" parent="0" />
        <mxCell id="Ua2uBuj6O-SuYEevN8ch-1" value="" style="rounded=0;whiteSpace=wrap;html=1;sketch=1;hachureGap=4;jiggle=2;curveFitting=1;fontFamily=Architects Daughter;fontSource=https%3A%2F%2Ffonts.googleapis.com%2Fcss%3Ffamily%3DArchitects%2BDaughter;fontSize=20;" parent="1" vertex="1">
          <mxGeometry x="-50" y="100" width="670" height="380" as="geometry" />
        </mxCell>
        <mxCell id="kr_lr3hD85Z8oLg4bj2I-8" style="edgeStyle=orthogonalEdgeStyle;rounded=0;sketch=1;hachureGap=4;jiggle=2;curveFitting=1;orthogonalLoop=1;jettySize=auto;html=1;exitX=0.5;exitY=1;exitDx=0;exitDy=0;entryX=0.5;entryY=0;entryDx=0;entryDy=0;fontFamily=Architects Daughter;fontSource=https%3A%2F%2Ffonts.googleapis.com%2Fcss%3Ffamily%3DArchitects%2BDaughter;fontSize=16;" parent="1" source="kr_lr3hD85Z8oLg4bj2I-1" target="kr_lr3hD85Z8oLg4bj2I-5" edge="1">
          <mxGeometry relative="1" as="geometry">
            <Array as="points">
              <mxPoint x="285" y="200" />
              <mxPoint x="285" y="200" />
            </Array>
          </mxGeometry>
        </mxCell>
        <mxCell id="kr_lr3hD85Z8oLg4bj2I-1" value="&lt;font face=&quot;Helvetica&quot; style=&quot;font-size: 17px;&quot;&gt;&lt;i style=&quot;font-size: 17px;&quot;&gt;Class&lt;/i&gt; &lt;br&gt;RequirementGen&lt;/font&gt;" style="rounded=0;whiteSpace=wrap;html=1;sketch=1;hachureGap=4;jiggle=2;curveFitting=1;fontFamily=Architects Daughter;fontSource=https%3A%2F%2Ffonts.googleapis.com%2Fcss%3Ffamily%3DArchitects%2BDaughter;fontSize=17;fillColor=#bac8d3;strokeColor=#23445d;strokeWidth=1.5;" parent="1" vertex="1">
          <mxGeometry x="190" y="120" width="190" height="60" as="geometry" />
        </mxCell>
        <mxCell id="kr_lr3hD85Z8oLg4bj2I-2" value="&lt;font face=&quot;Helvetica&quot; style=&quot;font-size: 16px;&quot;&gt;&lt;i style=&quot;font-size: 16px;&quot;&gt;Function&lt;/i&gt;&lt;br style=&quot;font-size: 16px;&quot;&gt;createUserStory&lt;br style=&quot;font-size: 16px;&quot;&gt;&lt;/font&gt;" style="rounded=0;whiteSpace=wrap;html=1;sketch=1;hachureGap=4;jiggle=2;curveFitting=1;fontFamily=Architects Daughter;fontSource=https%3A%2F%2Ffonts.googleapis.com%2Fcss%3Ffamily%3DArchitects%2BDaughter;fontSize=16;fillColor=#bac8d3;strokeColor=#23445d;strokeWidth=0.5;fontStyle=0" parent="1" vertex="1">
          <mxGeometry x="410" y="400" width="190" height="60" as="geometry" />
        </mxCell>
        <mxCell id="kr_lr3hD85Z8oLg4bj2I-4" value="&lt;font face=&quot;Helvetica&quot; style=&quot;font-size: 16px;&quot;&gt;&lt;i style=&quot;font-size: 16px;&quot;&gt;Function&lt;/i&gt;&lt;br style=&quot;font-size: 16px;&quot;&gt;requirementFill&lt;br style=&quot;font-size: 16px;&quot;&gt;&lt;/font&gt;" style="rounded=0;whiteSpace=wrap;html=1;sketch=1;hachureGap=4;jiggle=2;curveFitting=1;fontFamily=Architects Daughter;fontSource=https%3A%2F%2Ffonts.googleapis.com%2Fcss%3Ffamily%3DArchitects%2BDaughter;fontSize=16;fillColor=#bac8d3;strokeColor=#23445d;strokeWidth=0.5;fontStyle=0" parent="1" vertex="1">
          <mxGeometry x="190" y="400" width="190" height="60" as="geometry" />
        </mxCell>
        <mxCell id="kr_lr3hD85Z8oLg4bj2I-10" style="edgeStyle=orthogonalEdgeStyle;rounded=0;sketch=1;hachureGap=4;jiggle=2;curveFitting=1;orthogonalLoop=1;jettySize=auto;html=1;exitX=0.5;exitY=1;exitDx=0;exitDy=0;entryX=0.5;entryY=0;entryDx=0;entryDy=0;fontFamily=Architects Daughter;fontSource=https%3A%2F%2Ffonts.googleapis.com%2Fcss%3Ffamily%3DArchitects%2BDaughter;fontSize=16;" parent="1" source="kr_lr3hD85Z8oLg4bj2I-5" target="kr_lr3hD85Z8oLg4bj2I-7" edge="1">
          <mxGeometry relative="1" as="geometry" />
        </mxCell>
        <mxCell id="kr_lr3hD85Z8oLg4bj2I-5" value="&lt;font face=&quot;Helvetica&quot; style=&quot;font-size: 16px;&quot;&gt;&lt;i style=&quot;font-size: 16px;&quot;&gt;Function&lt;/i&gt;&lt;br style=&quot;font-size: 16px;&quot;&gt;handleProcess&lt;br style=&quot;font-size: 16px;&quot;&gt;&lt;/font&gt;" style="rounded=0;whiteSpace=wrap;html=1;sketch=1;hachureGap=4;jiggle=2;curveFitting=1;fontFamily=Architects Daughter;fontSource=https%3A%2F%2Ffonts.googleapis.com%2Fcss%3Ffamily%3DArchitects%2BDaughter;fontSize=16;fillColor=#bac8d3;strokeColor=#23445d;strokeWidth=0.5;fontStyle=0" parent="1" vertex="1">
          <mxGeometry x="190" y="210" width="190" height="60" as="geometry" />
        </mxCell>
        <mxCell id="kr_lr3hD85Z8oLg4bj2I-6" value="&lt;font face=&quot;Helvetica&quot; style=&quot;font-size: 16px;&quot;&gt;&lt;i style=&quot;font-size: 16px;&quot;&gt;Function&lt;/i&gt;&lt;br style=&quot;font-size: 16px;&quot;&gt;getRecentUpload&lt;br style=&quot;font-size: 16px;&quot;&gt;&lt;/font&gt;" style="rounded=0;whiteSpace=wrap;html=1;sketch=1;hachureGap=4;jiggle=2;curveFitting=1;fontFamily=Architects Daughter;fontSource=https%3A%2F%2Ffonts.googleapis.com%2Fcss%3Ffamily%3DArchitects%2BDaughter;fontSize=16;fillColor=#bac8d3;strokeColor=#23445d;strokeWidth=0.5;fontStyle=0" parent="1" vertex="1">
          <mxGeometry x="-30" y="400" width="190" height="60" as="geometry" />
        </mxCell>
        <mxCell id="kr_lr3hD85Z8oLg4bj2I-11" style="edgeStyle=orthogonalEdgeStyle;rounded=0;sketch=1;hachureGap=4;jiggle=2;curveFitting=1;orthogonalLoop=1;jettySize=auto;html=1;exitX=0.5;exitY=1;exitDx=0;exitDy=0;entryX=0.5;entryY=0;entryDx=0;entryDy=0;fontFamily=Architects Daughter;fontSource=https%3A%2F%2Ffonts.googleapis.com%2Fcss%3Ffamily%3DArchitects%2BDaughter;fontSize=16;" parent="1" source="kr_lr3hD85Z8oLg4bj2I-7" target="kr_lr3hD85Z8oLg4bj2I-6" edge="1">
          <mxGeometry relative="1" as="geometry" />
        </mxCell>
        <mxCell id="kr_lr3hD85Z8oLg4bj2I-12" style="edgeStyle=orthogonalEdgeStyle;rounded=0;sketch=1;hachureGap=4;jiggle=2;curveFitting=1;orthogonalLoop=1;jettySize=auto;html=1;exitX=0.5;exitY=1;exitDx=0;exitDy=0;entryX=0.5;entryY=0;entryDx=0;entryDy=0;fontFamily=Architects Daughter;fontSource=https%3A%2F%2Ffonts.googleapis.com%2Fcss%3Ffamily%3DArchitects%2BDaughter;fontSize=16;" parent="1" source="kr_lr3hD85Z8oLg4bj2I-7" target="kr_lr3hD85Z8oLg4bj2I-4" edge="1">
          <mxGeometry relative="1" as="geometry" />
        </mxCell>
        <mxCell id="kr_lr3hD85Z8oLg4bj2I-13" style="edgeStyle=orthogonalEdgeStyle;rounded=0;sketch=1;hachureGap=4;jiggle=2;curveFitting=1;orthogonalLoop=1;jettySize=auto;html=1;exitX=0.5;exitY=1;exitDx=0;exitDy=0;entryX=0.5;entryY=0;entryDx=0;entryDy=0;fontFamily=Architects Daughter;fontSource=https%3A%2F%2Ffonts.googleapis.com%2Fcss%3Ffamily%3DArchitects%2BDaughter;fontSize=16;" parent="1" source="kr_lr3hD85Z8oLg4bj2I-7" target="kr_lr3hD85Z8oLg4bj2I-2" edge="1">
          <mxGeometry relative="1" as="geometry" />
        </mxCell>
        <mxCell id="kr_lr3hD85Z8oLg4bj2I-7" value="&lt;font face=&quot;Helvetica&quot; style=&quot;font-size: 16px;&quot;&gt;&lt;i style=&quot;font-size: 16px;&quot;&gt;Function&lt;/i&gt;&lt;br style=&quot;font-size: 16px;&quot;&gt;createRequirementsList&lt;br style=&quot;font-size: 16px;&quot;&gt;&lt;/font&gt;" style="rounded=0;whiteSpace=wrap;html=1;sketch=1;hachureGap=4;jiggle=2;curveFitting=1;fontFamily=Architects Daughter;fontSource=https%3A%2F%2Ffonts.googleapis.com%2Fcss%3Ffamily%3DArchitects%2BDaughter;fontSize=16;fillColor=#bac8d3;strokeColor=#23445d;strokeWidth=0.5;fontStyle=0" parent="1" vertex="1">
          <mxGeometry x="190" y="300" width="190" height="60" as="geometry" />
        </mxCell>
      </root>
    </mxGraphModel>
  </diagram>
</mxfile>
